<?xml version="1.0" encoding="UTF-8" standalone="no"?>
<svg
   version="1.1"
   viewBox="-5 -10 81.999969 89.82"
   id="svg19"
   sodipodi:docname="calendar-time.svg"
   inkscape:version="1.4 (e7c3feb100, 2024-10-09)"
   width="81.999969"
   height="89.82"
   xmlns:inkscape="http://www.inkscape.org/namespaces/inkscape"
   xmlns:sodipodi="http://sodipodi.sourceforge.net/DTD/sodipodi-0.dtd"
   xmlns="http://www.w3.org/2000/svg"
   xmlns:svg="http://www.w3.org/2000/svg">
  <defs
     id="defs19" />
  <sodipodi:namedview
     id="namedview19"
     pagecolor="#ffffff"
     bordercolor="#000000"
     borderopacity="0.25"
     inkscape:showpageshadow="2"
     inkscape:pageopacity="0.0"
     inkscape:pagecheckerboard="0"
     inkscape:deskcolor="#d1d1d1"
     inkscape:zoom="5.9259259"
     inkscape:cx="41.090625"
     inkscape:cy="52.48125"
     inkscape:window-width="1920"
     inkscape:window-height="1011"
     inkscape:window-x="0"
     inkscape:window-y="0"
     inkscape:window-maximized="1"
     inkscape:current-layer="svg19" />
  <path
     d="M 76,-4.5 H 70.75 V -9 c 0,-0.55078 -0.44922,-1 -1,-1 h -7.5 c -0.55078,0 -1,0.44922 -1,1 v 4.5 h -5.5 V -9 c 0,-0.55078 -0.44922,-1 -1,-1 h -7.5 c -0.55078,0 -1,0.44922 -1,1 v 4.5 h -5.5 V -9 c 0,-0.55078 -0.44922,-1 -1,-1 h -7.5 c -0.55078,0 -1,0.44922 -1,1 v 4.5 h -5.5 V -9 c 0,-0.55078 -0.44922,-1 -1,-1 h -7.5 c -0.55078,0 -1,0.44922 -1,1 v 4.5 h -5.5 V -9 c 0,-0.55078 -0.44922,-1 -1,-1 h -7.5 c -0.55078,0 -1,0.44922 -1,1 v 4.5 H -4 c -0.55078,0 -1,0.44922 -1,1 v 70 c 0,0.55078 0.44922,1 1,1 h 39.422 c 0.55078,0 1,-0.44922 1,-1 0,-0.55078 -0.44922,-1 -1,-1 H -3 V 5 h 78 v 60.5 h -0.51953 c -0.55078,0 -1,0.44922 -1,1 0,0.55078 0.44922,1 1,1 h 1.5195 c 0.55078,0 1,-0.44922 1,-1 v -70 c 0,-0.55859 -0.44922,-1 -1,-1 z M 63.25,-8 h 5.5 v 6 h -5.5 z m -15,0 h 5.5 v 6 h -5.5 z m -15,0 h 5.5 v 6 h -5.5 z m -15,0 h 5.5 v 6 h -5.5 z m -15,0 h 5.5 v 6 H 3.25 Z M 75,3 H -3 V -2.5 H 1.25 V -1 c 0,0.55078 0.44922,1 1,1 h 7.5 c 0.55078,0 1,-0.44922 1,-1 v -1.5 h 5.5 V -1 c 0,0.55078 0.44922,1 1,1 h 7.5 c 0.55078,0 1,-0.44922 1,-1 v -1.5 h 5.5 V -1 c 0,0.55078 0.44922,1 1,1 h 7.5 c 0.55078,0 1,-0.44922 1,-1 v -1.5 h 5.5 V -1 c 0,0.55078 0.44922,1 1,1 h 7.5 c 0.55078,0 1,-0.44922 1,-1 v -1.5 h 5.5 V -1 c 0,0.55078 0.44922,1 1,1 h 7.5 c 0.55078,0 1,-0.44922 1,-1 V -2.5 H 75 Z"
     id="path1" />
  <path
     d="m 27.078,11.012 c 0,-0.55078 -0.44922,-1 -1,-1 h -8.4766 c -0.55078,0 -1,0.44922 -1,1 v 8.4688 c 0,0.55078 0.44922,1 1,1 h 8.4688 c 0.55078,0 1,-0.44922 1,-1 V 11.012 Z m -2,7.4766 H 18.6014 V 12.012 h 6.4688 v 6.4766 z"
     id="path2" />
  <path
     d="m 31.762,20.488 h 8.4688 c 0.55078,0 1,-0.44922 1,-1 v -8.4766 c 0,-0.55078 -0.44922,-1 -1,-1 H 31.762 c -0.55078,0 -1,0.44922 -1,1 v 8.4688 c 0,0.55859 0.44922,1.0078 1,1.0078 z m 1,-8.4766 h 6.4688 v 6.4688 H 32.762 Z"
     id="path3" />
  <path
     d="m 45.922,20.488 h 8.4688 c 0.55078,0 1,-0.44922 1,-1 v -8.4766 c 0,-0.55078 -0.44922,-1 -1,-1 H 45.922 c -0.55078,0 -1,0.44922 -1,1 v 8.4688 c 0,0.55859 0.44922,1.0078 1,1.0078 z m 1,-8.4766 h 6.4688 v 6.4688 H 46.922 Z"
     id="path4" />
  <path
     d="m 60.078,20.488 h 8.4688 c 0.55078,0 1,-0.44922 1,-1 l 0.0039,-8.4766 c 0,-0.55078 -0.44922,-1 -1,-1 h -8.4688 c -0.55078,0 -1,0.44922 -1,1 v 8.4688 c -0.0039,0.55859 0.44922,1.0078 0.99609,1.0078 z m 1,-8.4766 h 6.4688 v 6.4688 H 61.078 Z"
     id="path5" />
  <path
     d="m 12.922,24.121 c 0,-0.55078 -0.44922,-1 -1,-1 H 3.4532 c -0.55078,0 -1,0.44922 -1,1 v 8.4688 c 0,0.55078 0.44922,1 1,1 h 8.4688 c 0.55078,0 1,-0.44922 1,-1 z m -2,7.4688 H 4.4532 V 25.121 h 6.4688 z"
     id="path6" />
  <path
     d="m 27.078,24.121 c 0,-0.55078 -0.44922,-1 -1,-1 h -8.4766 c -0.55078,0 -1,0.44922 -1,1 v 8.4688 c 0,0.55078 0.44922,1 1,1 h 8.4688 c 0.55078,0 1,-0.44922 1,-1 V 24.121 Z m -2,7.4688 H 18.6014 V 25.121 h 6.4688 v 6.4688 z"
     id="path7" />
  <path
     d="m 30.762,32.59 c 0,0.55078 0.44922,1 1,1 h 8.4688 c 0.55078,0 1,-0.44922 1,-1 v -8.4688 c 0,-0.55078 -0.44922,-1 -1,-1 H 31.762 c -0.55078,0 -1,0.44922 -1,1 z m 2,-7.4688 h 6.4688 V 31.59 H 32.762 Z"
     id="path8" />
  <path
     d="m 44.922,32.59 c 0,0.55078 0.44922,1 1,1 h 8.4688 c 0.55078,0 1,-0.44922 1,-1 v -8.4688 c 0,-0.55078 -0.44922,-1 -1,-1 H 45.922 c -0.55078,0 -1,0.44922 -1,1 z m 2,-7.4688 h 6.4688 V 31.59 H 46.922 Z"
     id="path9" />
  <path
     d="m 59.078,32.59 c 0,0.55078 0.44922,1 1,1 h 8.4688 c 0.55078,0 1,-0.44922 1,-1 v -8.4688 c 0,-0.55078 -0.44922,-1 -1,-1 H 60.078 c -0.55078,0 -1,0.44922 -1,1 z m 2,-7.4688 h 6.4688 V 31.59 H 61.078 Z"
     id="path10" />
  <path
     d="m 12.922,37.219 c 0,-0.55078 -0.44922,-1 -1,-1 H 3.4532 c -0.55078,0 -1,0.44922 -1,1 v 8.4688 c 0,0.55078 0.44922,1 1,1 h 8.4688 c 0.55078,0 1,-0.44922 1,-1 z m -2,7.4805 H 4.4532 v -6.4688 h 6.4688 z"
     id="path11" />
  <path
     d="m 27.078,37.219 c 0,-0.55078 -0.44922,-1 -1,-1 h -8.4766 c -0.55078,0 -1,0.44922 -1,1 v 8.4688 c 0,0.55078 0.44922,1 1,1 h 8.4688 c 0.55078,0 1,-0.44922 1,-1 V 37.219 Z m -2,7.4805 h -6.4766 v -6.4688 h 6.4688 v 6.4688 z"
     id="path12" />
  <path
     d="m 30.762,45.699 c 0,0.55078 0.44922,1 1,1 h 8.4688 c 0.55078,0 1,-0.44922 1,-1 v -8.4688 c 0,-0.55078 -0.44922,-1 -1,-1 H 31.762 c -0.55078,0 -1,0.44922 -1,1 z m 2,-7.4805 h 6.4688 v 6.4688 H 32.762 Z"
     id="path13" />
  <path
     d="M 11.922,49.332 H 3.4532 c -0.55078,0 -1,0.44922 -1,1 v 8.4688 c 0,0.55078 0.44922,1 1,1 h 8.4688 c 0.55078,0 1,-0.44922 1,-1 V 50.332 c 0,-0.55078 -0.45312,-1 -1,-1 z m -1,8.4688 H 4.4532 V 51.332 h 6.4688 z"
     id="path14" />
  <path
     d="m 26.078,49.332 h -8.4766 c -0.55078,0 -1,0.44922 -1,1 v 8.4688 c 0,0.55078 0.44922,1 1,1 h 8.4688 c 0.55078,0 1,-0.44922 1,-1 V 50.332 c 0.0078,-0.55078 -0.44141,-1 -0.99219,-1 z m -1,8.4688 H 18.6014 V 51.332 h 6.4688 v 6.4688 z"
     id="path15" />
  <path
     d="m 54.859,79.82 c 10.488,0 19.02,-8.5312 19.02,-19.02 0,-5.5781 -2.4297,-10.59 -6.2695,-14.07 h 0.94922 c 0.55078,0 1,-0.44922 1,-1 v -8.4688 c 0,-0.55078 -0.44922,-1 -1,-1 h -8.4688 c -0.55078,0 -1,0.44922 -1,1 v 5.0117 c -1.1914,-0.26953 -2.4219,-0.42969 -3.6797,-0.46094 v -4.5508 c 0,-0.55078 -0.44922,-1 -1,-1 h -8.4805 c -0.55078,0 -1,0.44922 -1,1 v 7.3594 c -5.4414,3.3516 -9.0781,9.3398 -9.0781,16.191 -0.01172,10.477 8.5195,19.008 19.008,19.008 z m 6.2188,-41.559 h 6.4688 v 6.4688 h -2.5703 c -1.2109,-0.76953 -2.5195,-1.3984 -3.8984,-1.8789 z m -14.156,0 h 6.4805 v 3.6016 c -2.3008,0.17969 -4.4805,0.76172 -6.4805,1.6797 z m 7.9375,5.5195 c 9.3789,0 17.02,7.6289 17.02,17.02 0,9.3911 -7.6289,17.02 -17.02,17.02 -9.3911,0 -17.02,-7.6289 -17.02,-17.02 0,-9.3911 7.6289,-17.02 17.02,-17.02 z"
     id="path16" />
  <path
     d="m 43.949,71.711 c 0.01172,0.01172 0.03125,0.01953 0.03906,0.03125 2.7891,2.7695 6.6289,4.4883 10.871,4.4883 4.2383,0 8.0781,-1.7188 10.871,-4.4883 0.01172,-0.01172 0.03125,-0.01172 0.03906,-0.03125 0.01172,-0.01953 0.01953,-0.03125 0.03125,-0.03906 2.7695,-2.7891 4.4883,-6.6289 4.4883,-10.871 0,-4.2383 -1.7188,-8.0781 -4.4883,-10.871 -0.01172,-0.01172 -0.01172,-0.03125 -0.03125,-0.03906 -0.01953,-0.01172 -0.03125,-0.01953 -0.03906,-0.03125 -2.7891,-2.7695 -6.6289,-4.4883 -10.871,-4.4883 -4.2383,0 -8.0781,1.7188 -10.871,4.4883 -0.01172,0.01172 -0.03125,0.01172 -0.03906,0.03125 -0.01172,0.01953 -0.01953,0.03125 -0.03125,0.03906 -2.7695,2.7891 -4.4883,6.6289 -4.4883,10.871 0,4.2383 1.7188,8.0781 4.4883,10.871 0.01172,0.0078 0.02344,0.02734 0.03125,0.03906 z m -1.4609,-11.91 h -1.0117 c 0.21875,-2.9492 1.3906,-5.6289 3.2109,-7.75 l 0.71094,0.71094 c 0.19922,0.19922 0.44922,0.28906 0.71094,0.28906 0.26172,0 0.51172,-0.10156 0.71094,-0.28906 0.39063,-0.39062 0.39063,-1.0195 0,-1.4102 L 46.10918,50.6408 c 2.1094,-1.8203 4.8008,-2.9883 7.75,-3.2109 v 1.0117 c 0,0.55078 0.44922,1 1,1 0.55078,0 1,-0.44922 1,-1 v -1.0117 c 2.9492,0.21875 5.6289,1.3906 7.75,3.2109 l -0.71094,0.71094 c -0.39063,0.39062 -0.39063,1.0195 0,1.4102 0.19922,0.19922 0.44922,0.28906 0.71094,0.28906 0.26172,0 0.51172,-0.10156 0.71094,-0.28906 L 65.03106,52.051 c 1.8203,2.1094 2.9883,4.8008 3.2109,7.75 h -1.0117 c -0.55078,0 -1,0.44922 -1,1 0,0.55078 0.44922,1 1,1 h 1.0117 c -0.21875,2.9492 -1.3906,5.6289 -3.2109,7.75 l -0.71094,-0.71094 c -0.39062,-0.39063 -1.0195,-0.39063 -1.4102,0 -0.39062,0.39062 -0.39062,1.0195 0,1.4102 l 0.71094,0.71094 c -2.1094,1.8203 -4.8008,2.9883 -7.75,3.2109 v -1.0117 c 0,-0.55078 -0.44922,-1 -1,-1 -0.55078,0 -1,0.44922 -1,1 v 1.0117 c -2.9492,-0.21875 -5.6289,-1.3906 -7.75,-3.2109 l 0.71094,-0.71094 c 0.39062,-0.39062 0.39062,-1.0195 0,-1.4102 -0.39062,-0.39063 -1.0195,-0.39063 -1.4102,0 L 44.71066,69.551 c -1.8203,-2.1094 -2.9883,-4.8008 -3.2109,-7.75 h 1.0117 c 0.55078,0 1,-0.44922 1,-1 0,-0.55078 -0.47266,-1 -1.0234,-1 z"
     id="path17" />
  <path
     d="m 54.859,62.601 c 0.62109,0 1.1719,-0.32031 1.4883,-0.80078 h 3.6211 c 0.55078,0 1,-0.44922 1,-1 0,-0.55078 -0.44922,-1 -1,-1 h -3.6211 c -0.12891,-0.19141 -0.30078,-0.35938 -0.48828,-0.48828 v -6.75 c 0,-0.55078 -0.44922,-1 -1,-1 -0.55078,0 -1,0.44922 -1,1 v 6.75 c -0.48047,0.32031 -0.80078,0.87109 -0.80078,1.4883 0,0.98828 0.8125,1.8008 1.8008,1.8008 z"
     id="path18" />
</svg>
