<?xml version="1.0" encoding="UTF-8" standalone="no"?>
<svg
   version="1.1"
   viewBox="-5 -10 73.902573 80.525566"
   id="svg6"
   width="73.902573"
   height="80.525566"
   xmlns="http://www.w3.org/2000/svg"
   xmlns:svg="http://www.w3.org/2000/svg">
  <defs
     id="defs6" />
  <path
     d="m 49.402424,2.5298449 c -4.9297,0 -8.9414,4.0117 -8.9414,8.9414001 0,4.9297 4.0117,8.9414 8.9414,8.9414 4.9297,0 8.9414,-4.0117 8.9414,-8.9414 0,-4.9297001 -4.0117,-8.9414001 -8.9414,-8.9414001 z m 0,16.8910001 c -4.3789,0 -7.9414,-3.5586 -7.9414,-7.9414 0,-4.3789001 3.5586,-7.9414001 7.9414,-7.9414001 4.3789,0 7.9414,3.5586 7.9414,7.9414001 0,4.3789 -3.5625,7.9414 -7.9414,7.9414 z"
     id="path1" />
  <path
     d="m 49.402424,-2.5601551 c -10.75,0 -19.5,8.75 -19.5,19.5000001 0,1.3203 0.14062,2.6289 0.41016,3.9102 l -3.6406,6.1797 c -0.08984,0.14844 -0.08984,0.35156 0,0.5 0.08984,0.16016 0.25,0.25 0.42969,0.25 h 6.1016 c 0.57812,0.87109 1.2383,1.7188 2,2.5195 2.6211,2.8008 5.9883,4.75 9.7305,5.6094 1.4609,0.35156 2.9609,0.51953 4.4688,0.51953 1.4883,0 2.9883,-0.17969 4.4609,-0.51953 3.7188,-0.87109 7.0781,-2.8086 9.7188,-5.6094 3.4297,-3.6289 5.3203,-8.3789 5.3203,-13.359 0,-10.7500001 -8.7383,-19.5000001 -19.5,-19.5000001 z m 4.2422,37.5000001 c -2.8008,0.66016 -5.6992,0.66016 -8.4688,0 -3.4609,-0.80859 -6.5781,-2.5781 -9.0391,-5.1406 0.87109,-4.1211 3.6094,-7.6094 7.4102,-9.4297 1.6211,1.4102 3.6914,2.1914 5.8711,2.1914 2.1797,0 4.2383,-0.76953 5.8711,-2.1914 1.3789,0.66016 2.6406,1.5508 3.7305,2.6484 1.8711,1.8789 3.1406,4.2188 3.6719,6.7812 -2.4883,2.5586 -5.6094,4.3398 -9.0469,5.1406 z m 9.8477,-6.0586 c -0.64844,-2.4805 -1.9414,-4.7305 -3.7812,-6.5703 -1.2617,-1.2617 -2.7109,-2.2617 -4.3203,-2.9883 -0.17969,-0.07813 -0.39844,-0.05078 -0.55078,0.08984 -1.4688,1.3789 -3.3984,2.1406 -5.4414,2.1406 -2.0391,0 -3.9609,-0.76172 -5.4414,-2.1406 -0.14844,-0.14062 -0.35938,-0.17187 -0.55078,-0.08984 -4.0312,1.8086 -6.9805,5.3516 -8.0898,9.5781 -0.53125,-0.62109 -1.0195,-1.25 -1.4414,-1.8984 -0.01172,-0.01172 -0.01953,-0.01953 -0.03906,-0.03906 -0.01953,-0.03125 -0.05078,-0.05078 -0.07031,-0.07031 -0.01953,-0.01953 -0.05078,-0.03906 -0.07813,-0.05078 -0.03125,-0.01953 -0.05859,-0.03125 -0.08984,-0.03906 -0.03125,-0.01172 -0.07031,-0.01953 -0.10156,-0.01953 -0.01953,0 -0.03125,-0.01172 -0.05078,-0.01172 h -5.4883 l 3.2891,-5.5781 c 0.01172,-0.01953 0.01953,-0.05078 0.03125,-0.07031 0.01172,-0.03125 0.03125,-0.07031 0.03906,-0.10156 0.01172,-0.03906 0,-0.07813 0,-0.12891 v -0.05859 c -0.28125,-1.2812 -0.42188,-2.5898 -0.42188,-3.8984 0,-10.1990001 8.3008,-18.5000001 18.5,-18.5000001 10.199,0 18.5,8.3008 18.5,18.5000001 0.0078,4.4141 -1.5625,8.6055 -4.4023,11.945 z"
     id="path2" />
  <path
     d="m 37.012424,39.927845 -0.39062,-0.28906 c -1.4492,-0.89062 -4.1602,-0.25 -7.2891,0.5 -0.42969,0.10156 -0.87109,0.19922 -1.3008,0.30078 -0.82031,0.19141 -1.6406,0.37109 -2.4297,0.5 l -0.60938,0.10938 c -0.14062,0.01953 -0.53906,0.07031 -0.83984,0.10156 -0.08984,-0.17188 -0.19141,-0.35156 -0.21875,-0.41016 -2.3789,-4.2383 -7.0195,-14.5 -8.6992,-19.25 -0.10156,-0.28906 -0.17969,-0.53906 -0.25,-0.75 l 0.03125,-0.03125 c 0.05078,-0.05078 0.10938,-0.08984 0.23047,-0.17969 l 0.17188,-0.14062 -0.30859,-0.39062 0.42188,0.30078 0.53906,-0.42969 c 2.0898,-1.6719 8.4609,-6.7305 8.0703,-10.8200001 -0.19922,-1.9805 -1.8906,-9.17189999 -3.2695,-14.84 -0.62891,-2.5898 -3.0117,-4.3593999 -5.6797,-4.1992 -2.0195,0.12109 -3.9492,0.28125 -5.7499998,0.48828 -0.96094,0.10938 -1.9492,0.25 -2.9492,0.41016 -6.01169996,0.96875 -8.9609,2.4102 -9.8789,4.8086 -4.3594,11.48 0.08984,29.3090001 13.6209998,54.5000001 l 0.08984,0.16016 c 4.6016,7.2812 10.34,16.34 19.52,19.828 0.42188,0.16016 0.87109,0.26172 1.3398,0.30078 0.17188,0.01953 0.35156,0.01953 0.53125,0.01953 2.3594,0 5.3711,-1.3203 9.6484,-4.1992 0.73828,-0.5 1.5117,-1.0391 2.3984,-1.6992 0.89844,-0.64844 1.8281,-1.3594 2.7812,-2.1094 2.2109,-1.75 2.75,-4.8594 1.2695,-7.2383 -3.6289,-5.7891 -8.4375,-13.18 -10.801,-15.352 z m -21.77,-48.9100001 c 0.08984,-0.01172 0.17969,-0.01172 0.28125,-0.01172 2.0586,0 3.8789,1.4102 4.3711,3.4414 1.9688,8.1016 3.1016,13.18 3.25,14.699 0.17969,1.9219001 -1.5117,4.5000001 -5.0586,7.7109001 l -7.5195,-25.4610001 c 1.4883,-0.14844 3.0469,-0.27734 4.6758,-0.37891 z m 25.562,74.5000001 c -4.3398,2.9297 -7.3711,4.1992 -9.5312,4.0117 -0.37891,-0.03125 -0.73047,-0.10938 -1.0703,-0.23828 -8.8711,-3.3711 -14.5,-12.27 -19.02,-19.41 l -0.07813,-0.12891 C -2.2662058,24.830355 -6.7072058,7.2793549 -2.4462058,-3.9196451 c 0.76953,-2.0195 3.4883,-3.2695 9.1016,-4.1719 0.98047,-0.14844 1.9492,-0.28906 2.9102,-0.39844 L 17.264794,17.600015 c -0.57812,0.5 -1.1914,1.0117 -1.8516,1.5312 -0.17969,0.14063 -0.35156,0.26953 -0.51953,0.39844 l -0.10156,0.07813 -0.21094,0.17188 c -0.07813,0.05859 -0.14844,0.12109 -0.21094,0.17188 l -0.26953,0.21094 c -0.17188,0.12891 -0.23828,0.33984 -0.17188,0.53906 0.07813,0.28125 0.19922,0.64062 0.37109,1.1094 1.6914,4.7891 6.3711,15.129 8.7695,19.41 0.07031,0.12109 0.37109,0.69141 0.37109,0.69141 0.10156,0.17969 0.28906,0.28125 0.5,0.26172 0,0 1,-0.10938 1.2383,-0.14844 l 0.60938,-0.10938 c 0.69922,-0.12109 1.4102,-0.26953 2.1289,-0.42969 l 15.066,22.492 c -0.80078,0.58203 -1.5,1.082 -2.1797,1.5391 z m 5.1094,-3.7578 c -0.71875,0.57031 -1.4297,1.1094 -2.1289,1.6211 l -14.844,-22.121 c 0.21094,-0.05078 0.42188,-0.10156 0.62109,-0.14062 2.6719,-0.64062 5.4414,-1.2891 6.5,-0.64844 l 0.32031,0.23828 c 1.7812,1.6289 5.4414,6.8594 10.578,15.129 1.2109,1.9414 0.76172,4.4922 -1.0469,5.9219 z"
     id="path3" />
  <path
     d="m 2.4534242,14.291845 c -0.05859,-0.26953 -0.32812,-0.44141 -0.60156,-0.37891 -0.26953,0.05859 -0.44141,0.32813 -0.37891,0.60156 3.8281,16.922 11.5779998,32.039 23.6989998,46.219 0.10156,0.12109 0.23828,0.17969 0.37891,0.17969 0.12109,0 0.23047,-0.03906 0.32031,-0.12109 0.21094,-0.17969 0.23828,-0.48828 0.05859,-0.69922 -11.996,-14.074 -19.6759998,-29.051 -23.4769998,-45.801 z"
     id="path4" />
  <path
     d="m 1.6014242,12.677845 c 0.26953,-0.05859 0.44141,-0.32031 0.39062,-0.58984 -0.19922,-0.94922 -0.37891,-1.9102 -0.55078,-2.8711001 -0.05078,-0.26953 -0.30859,-0.46094 -0.57811996,-0.41016 -0.26953,0.05078 -0.44922,0.30859 -0.41016,0.57812 0.17188,0.9804701 0.35156,1.9414001 0.55077996,2.9102001 0.05078,0.23828 0.26172,0.39844 0.48828,0.39844 0.03906,-0.0039 0.07031,-0.01562 0.10938,-0.01562 z"
     id="path5" />
</svg>
